0
SECTION
2
HEADER
9
$INSUNITS
70
4
9
$ACADVER
1
AC1014
9
$HANDSEED
5
FFFF
0
ENDSEC
0
SECTION
2
TABLES
0
TABLE
2
VPORT
5
8
100
AcDbSymbolTable
0
ENDTAB
0
TABLE
2
LTYPE
5
5
100
AcDbSymbolTable
0
LTYPE
5
14
100
AcDbSymbolTableRecord
100
AcDbLinetypeTableRecord
2
BYBLOCK
70
0
0
LTYPE
5
15
100
AcDbSymbolTableRecord
100
AcDbLinetypeTableRecord
2
BYLAYER
70
0
0
ENDTAB
0
TABLE
2
LAYER
5
2
100
AcDbSymbolTable
70
2
0
LAYER
5
50
100
AcDbSymbolTableRecord
100
AcDbLayerTableRecord
2
0
70
0
6
CONTINUOUS
0
ENDTAB
0
TABLE
2
STYLE
5
3
100
AcDbSymbolTable
70
1
0
STYLE
5
11
100
AcDbSymbolTableRecord
100
AcDbTextStyleTableRecord
2
STANDARD
70
0
0
ENDTAB
0
TABLE
2
VIEW
5
6
100
AcDbSymbolTable
70
0
0
ENDTAB
0
TABLE
2
UCS
5
7
100
AcDbSymbolTable
70
0
0
ENDTAB
0
TABLE
2
APPID
5
9
100
AcDbSymbolTable
70
2
0
APPID
5
12
100
AcDbSymbolTableRecord
100
AcDbRegAppTableRecord
2
ACAD
70
0
0
ENDTAB
0
TABLE
2
DIMSTYLE
5
A
100
AcDbSymbolTable
70
1
0
ENDTAB
0
TABLE
2
BLOCK_RECORD
5
1
100
AcDbSymbolTable
70
1
0
BLOCK_RECORD
5
1F
100
AcDbSymbolTableRecord
100
AcDbBlockTableRecord
2
*MODEL_SPACE
0
BLOCK_RECORD
5
1B
100
AcDbSymbolTableRecord
100
AcDbBlockTableRecord
2
*PAPER_SPACE
0
ENDTAB
0
ENDSEC
0
SECTION
2
BLOCKS
0
BLOCK
5
20
100
AcDbEntity
100
AcDbBlockBegin
2
*MODEL_SPACE
0
ENDBLK
5
21
100
AcDbEntity
100
AcDbBlockEnd
0
BLOCK
5
1C
100
AcDbEntity
100
AcDbBlockBegin
2
*PAPER_SPACE
0
ENDBLK
5
1D
100
AcDbEntity
100
AcDbBlockEnd
0
ENDSEC
0
SECTION
2
ENTITIES
0
LWPOLYLINE
5
100
100
AcDbEntity
8
0
100
AcDbPolyline
90
32
70
1
43
0.0
10
-7.9463872334129881
20
179.40469404467834
10
1.2907097733870998
20
179.40469404467834
10
3.8513699451669798
20
181.96535421645805
42
-0.19891236737963908
10
4.9120301169467595
20
182.40469404467814
10
6.6693894298273797
20
182.40469404467814
42
-0.19891236737963192
10
7.7300496016070852
20
181.96535421645805
10
10.290709773387086
20
179.40469404467842
10
19.527806780187142
20
179.40469404467822
42
-0.064422322341286142
10
19.881618864296193
20
179.55632850131153
42
0.14394078462862786
10
21.790709773387071
20
180.75894273361365
42
0.18267581368160699
10
22.290709773386936
20
182.08181838914606
10
22.290709773387007
20
184.72756970021067
42
0.18267581368159075
10
21.790709773386858
20
186.05044535574285
42
0.014964612765998163
10
21.627073409750576
20
186.22516232535676
42
-0.19818219171723422
10
21.190709773387013
20
187.28283793061138
10
21.190709773386995
20
188.45261524556139
42
-0.20430187688467777
10
30.11378669646394
20
209.37908555861949
42
1.0364173297890187
10
25.093339166756344
20
214.25068337368444
42
-0.23606797749983591
10
23.843736435674572
20
213.76232590781171
10
17.448632758197895
20
214.34646281508844
42
-0.32995754831973578
10
15.672383365993099
20
215.93129028629761
42
0.74053905226124239
10
-3.378764066552808
20
217.67144633419935
42
-0.32995754831971214
10
-5.4127441608574145
20
216.43465007257043
10
-11.807683494134976
20
217.01877196843878
42
-0.23608249683538168
10
-12.948174403834525
20
217.72550991865006
42
0.7207782091470335
10
-19.413177442209104
20
216.20746166336312
42
0.02856209455609093
10
-19.596644904106437
20
210.81103614343991
42
0.10940430837963602
10
-19.235305016122339
20
209.34125735864836
10
-10.709290226612787
20
186.61507501400001
10
-10.709290226613
20
182.08181838914606
42
0.18267581368160998
10
-10.20929022661317
20
180.75894273361365
42
0.14394078462864207
10
-8.3001993175220168
20
179.55632850131164
42
-0.064422322341275221
0
LWPOLYLINE
5
101
100
AcDbEntity
8
0
100
AcDbPolyline
90
4
70
1
43
0.0
10
-17.72022589323397
20
216.05281673837902
42
0.028562094556091173
10
-17.897099387156121
20
210.85034308703658
42
0.99999999999999989
10
-14.298061821850133
20
210.93358132053447
42
-0.02856209433012119
10
-14.135152028267104
20
215.72533333004884
42
0.99999999999999989
0
LWPOLYLINE
5
102
100
AcDbEntity
8
0
100
AcDbPolyline
90
17
70
1
43
0.0
10
18.825382445806866
20
195.97569541790494
42
0.46749076624969854
10
14.492608954525794
20
194.12186937128754
42
-0.7867337130714509
10
-11.73288483028184
20
195.03731476331268
10
-15.729323223542366
20
205.68986345067256
42
-0.41318773073926335
10
-14.856707381221845
20
207.61931287277775
42
0.31798692843711168
10
-12.598516305782947
20
210.97288830229999
42
-0.015662044191848926
10
-12.577824612181505
20
213.49690585165683
42
-0.42939978316023619
10
-10.94255188922892
20
214.93142384891354
10
-5.5946693604150965
20
214.44294145388051
42
0.32995754831970003
10
-1.5267091718060599
20
216.91653397713768
42
-0.74053905226121897
10
13.714208774230627
20
215.52440913881617
42
0.32995754831972313
10
17.266707558640171
20
212.35475419639823
10
23.081650719775073
20
211.82360988890275
42
-0.29821662669858506
10
24.368857706090736
20
210.80228811082307
42
0.13105593062769982
10
25.358975120724342
20
209.29451904871112
42
-0.39183669465331938
10
25.551862554374374
20
207.26556843526936
42
0.093016678183127047
10
20.407576313221018
20
197.05290368804609
42
-0.36046495827290448
0
CIRCLE
5
103
100
AcDbEntity
8
0
100
AcDbCircle
10
-18.790709773386993
20
183.40469404467814
30
4.4248355960156624e-14
40
1.7000000002615323
210
1.4094617971091148e-15
220
1.5777218104420184e-30
230
-1
0
CIRCLE
5
104
100
AcDbEntity
8
0
100
AcDbCircle
10
7.2092902266130565
20
183.40469404467814
30
7.6023492353195781e-15
40
1.7000000002615501
210
1.4094617971091148e-15
220
1.5777218104420184e-30
230
-1
0
CIRCLE
5
105
100
AcDbEntity
8
0
100
AcDbCircle
10
-27.690709773386928
20
211.90469404467817
30
-1.7763568394002176e-14
40
1.8000000000000003
210
-2.5399088462727774e-31
220
1.5777218104420184e-30
230
-1
0
CIRCLE
5
106
100
AcDbEntity
8
0
100
AcDbCircle
10
-17.433704468369413
20
193.23812835806595
30
7.7763370415194339e-15
40
1.0999999999999943
210
1.4649729483403768e-15
220
0
230
-1
0
ENDSEC
0
SECTION
2
OBJECTS
0
DICTIONARY
5
C
100
AcDbDictionary
3
ACAD_GROUP
350
D
3
ACAD_MLINESTYLE
350
17
0
DICTIONARY
5
D
100
AcDbDictionary
0
DICTIONARY
5
1A
330
C
100
AcDbDictionary
0
DICTIONARY
5
17
100
AcDbDictionary
0
ENDSEC
0
EOF
