0
SECTION
2
HEADER
9
$INSUNITS
70
4
9
$ACADVER
1
AC1014
9
$HANDSEED
5
FFFF
0
ENDSEC
0
SECTION
2
TABLES
0
TABLE
2
VPORT
5
8
100
AcDbSymbolTable
0
ENDTAB
0
TABLE
2
LTYPE
5
5
100
AcDbSymbolTable
0
LTYPE
5
14
100
AcDbSymbolTableRecord
100
AcDbLinetypeTableRecord
2
BYBLOCK
70
0
0
LTYPE
5
15
100
AcDbSymbolTableRecord
100
AcDbLinetypeTableRecord
2
BYLAYER
70
0
0
ENDTAB
0
TABLE
2
LAYER
5
2
100
AcDbSymbolTable
70
2
0
LAYER
5
50
100
AcDbSymbolTableRecord
100
AcDbLayerTableRecord
2
0
70
0
6
CONTINUOUS
0
ENDTAB
0
TABLE
2
STYLE
5
3
100
AcDbSymbolTable
70
1
0
STYLE
5
11
100
AcDbSymbolTableRecord
100
AcDbTextStyleTableRecord
2
STANDARD
70
0
0
ENDTAB
0
TABLE
2
VIEW
5
6
100
AcDbSymbolTable
70
0
0
ENDTAB
0
TABLE
2
UCS
5
7
100
AcDbSymbolTable
70
0
0
ENDTAB
0
TABLE
2
APPID
5
9
100
AcDbSymbolTable
70
2
0
APPID
5
12
100
AcDbSymbolTableRecord
100
AcDbRegAppTableRecord
2
ACAD
70
0
0
ENDTAB
0
TABLE
2
DIMSTYLE
5
A
100
AcDbSymbolTable
70
1
0
ENDTAB
0
TABLE
2
BLOCK_RECORD
5
1
100
AcDbSymbolTable
70
1
0
BLOCK_RECORD
5
1F
100
AcDbSymbolTableRecord
100
AcDbBlockTableRecord
2
*MODEL_SPACE
0
BLOCK_RECORD
5
1B
100
AcDbSymbolTableRecord
100
AcDbBlockTableRecord
2
*PAPER_SPACE
0
ENDTAB
0
ENDSEC
0
SECTION
2
BLOCKS
0
BLOCK
5
20
100
AcDbEntity
100
AcDbBlockBegin
2
*MODEL_SPACE
0
ENDBLK
5
21
100
AcDbEntity
100
AcDbBlockEnd
0
BLOCK
5
1C
100
AcDbEntity
100
AcDbBlockBegin
2
*PAPER_SPACE
0
ENDBLK
5
1D
100
AcDbEntity
100
AcDbBlockEnd
0
ENDSEC
0
SECTION
2
ENTITIES
0
LINE
5
100
100
AcDbEntity
8
OUTER_PROFILES
100
AcDbLine
10
30.494483654673125
20
20.999999999999964
30
0
11
31.287382113872731
21
20.999999999999964
31
0
0
ARC
5
101
100
AcDbEntity
8
OUTER_PROFILES
100
AcDbCircle
10
31.287382113872596
20
22.249999999999961
30
0
40
1.2499999999999956
210
-0
220
0
230
1
100
AcDbArc
50
-89.99999999999379
51
89.999999999991857
0
LINE
5
102
100
AcDbEntity
8
OUTER_PROFILES
100
AcDbLine
10
31.287382113872773
20
23.499999999999961
30
0
11
30.494475824763715
21
23.49999999999995
31
0
0
SPLINE
5
103
100
AcDbEntity
8
OUTER_PROFILES
100
AcDbSpline
70
0
71
3
72
14
73
10
74
0
42
0.000000001
43
0.0000000001
44
0.0000000001
40
0
40
0
40
0
40
0
40
0.028009838281865547
40
0.028009838281865547
40
0.056360429369043979
40
0.056360429369043979
40
0.083616173205226921
40
0.083616173205226921
40
0.11142786766530112
40
0.11142786766530112
40
0.11142786766530112
40
0.11142786766530112
10
30.494475824763715
20
23.49999999999995
30
0
10
30.40110969715748
20
23.499999999999961
30
0
10
30.308661454410473
20
23.518492022792419
30
0
10
30.135248317494487
20
23.590757548130018
30
0
10
30.056183420496044
20
23.64422967227091
30
0
10
29.926310190701983
20
23.776476472697105
30
0
10
29.875737479678715
20
23.85296324717401
30
0
10
29.80559995098173
20
24.022593177599614
30
0
10
29.78736840673761
20
24.114400269812055
30
0
10
29.787368180403725
20
24.20710591801204
30
0
0
LINE
5
104
100
AcDbEntity
8
OUTER_PROFILES
100
AcDbLine
10
29.787368180403718
20
24.20710591801204
30
0
11
29.787363821273892
21
25.992592067677478
31
0
0
ARC
5
105
100
AcDbEntity
8
OUTER_PROFILES
100
AcDbCircle
10
-28.287382113872567
20
25.999999999999972
30
0
40
1.4999999999999991
210
0
220
0
230
-1
100
AcDbArc
50
180
51
180.28296332158388
0
LINE
5
106
100
AcDbEntity
8
OUTER_PROFILES
100
AcDbLine
10
29.787382113872564
20
25.99999999999995
30
0
11
29.787382113872599
21
28.16307328841042
31
0
0
SPLINE
5
107
100
AcDbEntity
8
OUTER_PROFILES
100
AcDbSpline
70
0
71
3
72
10
73
6
74
0
42
0.000000001
43
0.0000000001
44
0.0000000001
40
0
40
0
40
0
40
0
40
0.50190202519934779
40
0.50190202519934779
40
1.0038040503986918
40
1.0038040503986918
40
1.0038040503986918
40
1.0038040503986918
10
29.787382113872599
20
28.16307328841042
30
0
10
29.787382113872592
20
29.836080039074915
30
0
10
29.906436735884363
20
31.506968075638824
30
0
10
30.380850529949136
20
34.81917850118198
30
0
10
30.73560889916935
20
36.456306270546129
30
0
10
31.20522993151085
20
38.062048364953384
30
0
0
LINE
5
108
100
AcDbEntity
8
OUTER_PROFILES
100
AcDbLine
10
31.205229931510857
20
38.062048364953384
30
0
11
31.351274893188869
21
38.561409608365274
31
0
0
ARC
5
109
100
AcDbEntity
8
OUTER_PROFILES
100
AcDbCircle
10
-33.270863195829598
20
37.999999999999972
30
0
40
2.0000000000000022
210
0
220
0
230
-1
100
AcDbArc
50
16.302274117896356
51
90
0
LINE
5
110
100
AcDbEntity
8
OUTER_PROFILES
100
AcDbLine
10
33.270863195829598
20
39.999999999999972
30
0
11
41.574764227745256
21
39.999999999999993
31
0
0
ARC
5
111
100
AcDbEntity
8
OUTER_PROFILES
100
AcDbCircle
10
-41.574764227745256
20
37.500000000000007
30
0
40
2.4999999999999867
210
0
220
0
230
-1
100
AcDbArc
50
90
51
180
0
LINE
5
112
100
AcDbEntity
8
OUTER_PROFILES
100
AcDbLine
10
44.074764227745256
20
37.500000000000007
30
0
11
44.074764227745277
21
2.4999999999999822
31
0
0
ARC
5
113
100
AcDbEntity
8
OUTER_PROFILES
100
AcDbCircle
10
-41.574764227745277
20
2.4999999999999845
30
0
40
2.5
210
0
220
-0
230
-1
100
AcDbArc
50
180
51
270
0
LINE
5
114
100
AcDbEntity
8
OUTER_PROFILES
100
AcDbLine
10
41.574764227745277
20
-1.5265566588595902e-14
30
0
11
0
21
0
31
0
0
ARC
5
115
100
AcDbEntity
8
OUTER_PROFILES
100
AcDbCircle
10
4.4408920985006262e-15
20
2.5000000000000089
30
0
40
2.5000000000000089
210
0
220
-0
230
-1
100
AcDbArc
50
-90.000000000000099
51
0
0
LINE
5
116
100
AcDbEntity
8
OUTER_PROFILES
100
AcDbLine
10
-2.5000000000000044
20
2.5000000000000115
30
0
11
-2.4999999999999285
21
37.499999999999993
31
0
0
ARC
5
117
100
AcDbEntity
8
OUTER_PROFILES
100
AcDbCircle
10
-7.1054273576010019e-14
20
37.499999999999993
30
0
40
2.4999999999999996
210
0
220
0
230
-1
100
AcDbArc
50
0
51
89.999999999999915
0
LINE
5
118
100
AcDbEntity
8
OUTER_PROFILES
100
AcDbLine
10
6.7015412139928545e-14
20
39.999999999999993
30
0
11
8.3039010319156095
21
40
31
0
0
ARC
5
119
100
AcDbEntity
8
OUTER_PROFILES
100
AcDbCircle
10
-8.303901031915597
20
38
30
0
40
2.0000000000000018
210
0
220
0
230
-1
100
AcDbArc
50
90.000000000000369
51
163.69772588210427
0
LINE
5
120
100
AcDbEntity
8
OUTER_PROFILES
100
AcDbLine
10
10.22348933455633
20
38.561409608365281
30
0
11
10.369552625022703
21
38.06198569461926
31
0
0
SPLINE
5
121
100
AcDbEntity
8
OUTER_PROFILES
100
AcDbSpline
70
0
71
3
72
10
73
6
74
0
42
0.000000001
43
0.0000000001
44
0.0000000001
40
0
40
0
40
0
40
0
40
0.50190202519934668
40
0.50190202519934668
40
1.0038040503986982
40
1.0038040503986982
40
1.0038040503986982
40
1.0038040503986982
10
10.369552625022703
20
38.06198569461926
30
0
10
10.839173657364219
20
36.456243600211991
30
0
10
11.193932026584418
20
34.819115830847927
30
0
10
11.668345820649169
20
31.506905405304725
30
0
10
11.787400442660985
20
29.836017368740801
30
0
10
11.787400442660989
20
28.163010618076314
30
0
0
LINE
5
122
100
AcDbEntity
8
OUTER_PROFILES
100
AcDbLine
10
11.787400442660989
20
28.163010618076314
30
0
11
11.787400442660987
21
26.00741525650356
31
0
0
ARC
5
123
100
AcDbEntity
8
OUTER_PROFILES
100
AcDbCircle
10
-13.287382113872626
20
25.999999999999982
30
0
40
1.4999999999999667
210
-0
220
0
230
-1
100
AcDbArc
50
-0.28324308817363375
51
0.28324308810930271
0
LINE
5
124
100
AcDbEntity
8
OUTER_PROFILES
100
AcDbLine
10
11.787400442660987
20
25.99258474349471
30
0
11
11.787400442660999
21
24.207106781186521
31
0
0
SPLINE
5
125
100
AcDbEntity
8
OUTER_PROFILES
100
AcDbSpline
70
0
71
3
72
14
73
10
74
0
42
0.000000001
43
0.0000000001
44
0.0000000001
40
0
40
0
40
0
40
0
40
0.028009803643894372
40
0.028009803643894372
40
0.0563603637098802
40
0.0563603637098802
40
0.083616077336693184
40
0.083616077336693184
40
0.11142790592774847
40
0.11142790592774847
40
0.11142790592774847
40
0.11142790592774847
10
11.787400442660999
20
24.207106781186521
30
0
10
11.787400442660992
20
24.113740769040195
30
0
10
11.768908443030865
20
24.021292640588705
30
0
10
11.696643002964954
20
23.847879705245333
30
0
10
11.643170935707607
20
23.768814895570443
30
0
10
11.510924275192425
20
23.638941814601566
30
0
10
11.43443758202439
20
23.588369164532175
30
0
10
11.264807325384091
20
23.518231518212858
30
0
10
11.172999756777973
20
23.499999999999975
30
0
10
11.080293661474458
20
23.499999999999964
30
0
0
LINE
5
126
100
AcDbEntity
8
OUTER_PROFILES
100
AcDbLine
10
11.08029366147446
20
23.499999999999964
30
0
11
10.287382113872606
21
23.499999999999972
31
0
0
ARC
5
127
100
AcDbEntity
8
OUTER_PROFILES
100
AcDbCircle
10
10.28738211387261
20
22.249999999999972
30
0
40
1.25
210
0
220
0
230
1
100
AcDbArc
50
90.000000000000171
51
270
0
LINE
5
128
100
AcDbEntity
8
OUTER_PROFILES
100
AcDbLine
10
10.28738211387261
20
20.999999999999972
30
0
11
11.080293661474439
21
20.999999999999975
31
0
0
SPLINE
5
129
100
AcDbEntity
8
OUTER_PROFILES
100
AcDbSpline
70
0
71
3
72
14
73
10
74
0
42
0.000000001
43
0.0000000001
44
0.0000000001
40
0
40
0
40
0
40
0
40
0.028009803643895246
40
0.028009803643895246
40
0.056360363709884981
40
0.056360363709884981
40
0.083616077336692948
40
0.083616077336692948
40
0.11142790592775023
40
0.11142790592775023
40
0.11142790592775023
40
0.11142790592775023
10
11.080293661474439
20
20.999999999999975
30
0
10
11.173659673620744
20
20.999999999999982
30
0
10
11.266107802072241
20
20.98150800036986
30
0
10
11.439520737415643
20
20.909242560303912
30
0
10
11.518585547090519
20
20.855770493046585
30
0
10
11.648458628059377
20
20.723523832531381
30
0
10
11.699031278128803
20
20.647037139363352
30
0
10
11.769168924448103
20
20.477406882723052
30
0
10
11.787400442660985
20
20.385599314116952
30
0
10
11.787400442660978
20
20.292893218813433
30
0
0
LINE
5
130
100
AcDbEntity
8
OUTER_PROFILES
100
AcDbLine
10
11.787400442660978
20
20.292893218813433
30
0
11
11.787400442660982
21
18.507415256508828
31
0
0
ARC
5
131
100
AcDbEntity
8
OUTER_PROFILES
100
AcDbCircle
10
-13.287382113872619
20
18.499999999999975
30
0
40
1.5000000000000013
210
-0
220
0
230
-1
100
AcDbArc
50
-89.999999999999943
51
0.28324308831003747
0
LINE
5
132
100
AcDbEntity
8
OUTER_PROFILES
100
AcDbLine
10
13.287382113872617
20
16.999999999999975
30
0
11
18.249968378680848
21
16.999999999999972
31
0
0
ARC
5
133
100
AcDbEntity
8
OUTER_PROFILES
100
AcDbCircle
10
-18.24996837868084
20
13.999999999999959
30
0
40
3.0000000000000115
210
0
220
0
230
-1
100
AcDbArc
50
90.000000000000142
51
157.35622347138394
0
ARC
5
134
100
AcDbEntity
8
OUTER_PROFILES
100
AcDbCircle
10
23.78746635221632
20
16.310003504995219
30
0
40
2.9999999999999889
210
0
220
0
230
1
100
AcDbArc
50
202.64377652861515
51
270.00000000000063
0
LINE
5
135
100
AcDbEntity
8
OUTER_PROFILES
100
AcDbLine
10
23.787466352216352
20
13.310003504995215
30
0
11
28.287382113872553
21
13.310003504995267
31
0
0
ARC
5
136
100
AcDbEntity
8
OUTER_PROFILES
100
AcDbCircle
10
28.287382113872575
20
14.810003504995265
30
0
40
1.4999999999999991
210
0
220
0
230
1
100
AcDbArc
50
269.9999999999992
51
360
0
LINE
5
137
100
AcDbEntity
8
OUTER_PROFILES
100
AcDbLine
10
29.787382113872575
20
14.810003504995263
30
0
11
29.787382113872539
21
18.499999999999961
31
0
0
LINE
5
138
100
AcDbEntity
8
OUTER_PROFILES
100
AcDbLine
10
29.787382113872539
20
18.499999999999961
30
0
11
29.78737773666105
21
20.292892355639992
31
0
0
SPLINE
5
139
100
AcDbEntity
8
OUTER_PROFILES
100
AcDbSpline
70
0
71
3
72
14
73
10
74
0
42
0.000000001
43
0.0000000001
44
0.0000000001
40
0
40
0
40
0
40
0
40
0.028009769006053033
40
0.028009769006053033
40
0.056360298050981195
40
0.056360298050981195
40
0.083615981468526751
40
0.083615981468526751
40
0.11142794419028522
40
0.11142794419028522
40
0.11142794419028522
40
0.11142794419028522
10
29.78737773666105
20
20.292892355639992
30
0
10
29.787377508715252
20
20.386258252326563
30
0
10
29.805869259478222
20
20.478706311629455
30
0
10
29.878134190898496
20
20.652119221830951
30
0
10
29.931606008241801
20
20.731184074730351
30
0
10
30.063852211771195
20
20.861057329744082
30
0
10
30.140338700161266
20
20.911630105595908
30
0
10
30.309969111779289
20
20.981768283677336
30
0
10
30.401777112267219
20
20.999999999999964
30
0
10
30.494483654673125
20
20.999999999999964
30
0
0
SPLINE
5
140
100
AcDbEntity
8
INTERIOR_PROFILES
100
AcDbSpline
70
0
71
3
72
8
73
4
74
0
42
0.000000001
43
0.0000000001
44
0.0000000001
40
0.75223021375748766
40
0.75223021375748766
40
0.75223021375748766
40
0.75223021375748766
40
1.0038040503986982
40
1.0038040503986982
40
1.0038040503986982
40
1.0038040503986982
10
31.871902117795912
20
30.533060873418989
30
0
10
31.815578959511306
20
29.744549163428076
30
0
10
31.787363785084196
20
28.954030951512774
30
0
10
31.787363785084199
20
28.163010618076292
30
0
0
SPLINE
5
141
100
AcDbEntity
8
INTERIOR_PROFILES
100
AcDbSpline
70
0
71
3
72
8
73
4
74
0
42
0.000000001
43
0.0000000001
44
0.0000000001
40
0.74477723503807969
40
0.74477723503807969
40
0.74477723503807969
40
0.74477723503807969
40
0.75223021375661103
40
0.75223021375661103
40
0.75223021375661103
40
0.75223021375661103
10
31.876981913611875
20
30.603135505528385
30
0
10
31.875263980802394
20
30.579779081941801
30
0
10
31.873570714601609
20
30.556420858202852
30
0
10
31.871902117796552
20
30.533060873427253
30
0
0
ARC
5
142
100
AcDbEntity
8
INTERIOR_PROFILES
100
AcDbCircle
10
-31.375750215983309
20
30.604248968170936
30
0
40
0.50123293437952354
210
0
220
0
230
-1
100
AcDbArc
50
8.1584724449729276
51
180.12727967010585
0
SPLINE
5
143
100
AcDbEntity
8
INTERIOR_PROFILES
100
AcDbSpline
70
0
71
3
72
8
73
4
74
0
42
0.000000001
43
0.0000000001
44
0.0000000001
40
-1.0038040503986982
40
-1.0038040503986982
40
-1.0038040503986982
40
-1.0038040503986982
40
-0.74489197578018573
40
-0.74489197578018573
40
-0.74489197578018573
40
-0.74489197578018573
10
30.787363799985371
20
28.163010618076306
30
0
10
30.787363799985354
20
29.001577671776122
30
0
10
30.818147422101276
20
29.839596895470354
30
0
10
30.879594306828835
20
30.675379087579529
30
0
0
ARC
5
144
100
AcDbEntity
8
INTERIOR_PROFILES
100
AcDbCircle
10
-31.287363792534769
20
28.163010618076303
30
0
40
0.49999999254942473
210
0
220
0
230
-1
100
AcDbArc
50
-180
51
0
0
CIRCLE
5
145
100
AcDbEntity
8
INTERIOR_PROFILES
100
AcDbCircle
10
-15.4373821138726
20
1.9999999999999774
30
0
40
1.0377499999999995
210
0
220
0
230
-1
0
ARC
5
146
100
AcDbEntity
8
INTERIOR_PROFILES
100
AcDbCircle
10
-10.199014011761893
20
30.604248968170957
30
0
40
0.50122867044496966
210
-0
220
0
230
-1
100
AcDbArc
50
-0.13411967318171999
51
171.84152755498664
0
SPLINE
5
147
100
AcDbEntity
8
INTERIOR_PROFILES
100
AcDbSpline
70
0
71
3
72
8
73
4
74
0
42
0.000000001
43
0.0000000001
44
0.0000000001
40
-0.75223021375664312
40
-0.75223021375664312
40
-0.75223021375664312
40
-0.75223021375664312
40
-0.74478359862440624
40
-0.74478359862440624
40
-0.74478359862440624
40
-0.74478359862440624
10
9.7028621099487147
20
30.533060873426948
30
0
10
9.701194937843777
20
30.556400912717056
30
0
10
9.6995031384520836
20
30.579739193976433
30
0
10
9.6977867145536845
20
30.60307567818958
30
0
0
SPLINE
5
148
100
AcDbEntity
8
INTERIOR_PROFILES
100
AcDbSpline
70
0
71
3
72
8
73
4
74
0
42
0.000000001
43
0.0000000001
44
0.0000000001
40
-1.0038040503986982
40
-1.0038040503986982
40
-1.0038040503986982
40
-1.0038040503986982
40
-0.75223021375752208
40
-0.75223021375752208
40
-0.75223021375752208
40
-0.75223021375752208
10
9.7874004426609869
20
28.163010618076321
30
0
10
9.7874004426609957
20
28.954030951512699
30
0
10
9.7591852682339209
20
29.744549163427884
30
0
10
9.7028621099492831
20
30.533060873418691
30
0
0
ARC
5
149
100
AcDbEntity
8
INTERIOR_PROFILES
100
AcDbCircle
10
-10.287400435210419
20
28.163010618076317
30
0
40
0.49999999254941585
210
0
220
0
230
-1
100
AcDbArc
50
-180
51
0
0
SPLINE
5
150
100
AcDbEntity
8
INTERIOR_PROFILES
100
AcDbSpline
70
0
71
3
72
8
73
4
74
0
42
0.000000001
43
0.0000000001
44
0.0000000001
40
0.74489197578015132
40
0.74489197578015132
40
0.74489197578015132
40
0.74489197578015132
40
1.0038040503986982
40
1.0038040503986982
40
1.0038040503986982
40
1.0038040503986982
10
10.695169920916396
20
30.675379087579877
30
0
10
10.756616805643983
20
29.839596895470599
30
0
10
10.787400427759849
20
29.001577671776246
30
0
10
10.787400427759833
20
28.163010618076306
30
0
0
CIRCLE
5
151
100
AcDbEntity
8
INTERIOR_PROFILES
100
AcDbCircle
10
-26.137382113872583
20
1.9999999999999685
30
0
40
1.0377500000000017
210
0
220
0
230
-1
0
CIRCLE
5
152
100
AcDbEntity
8
INTERIOR_PROFILES
100
AcDbCircle
10
-11.137382113872576
20
1.9999999999999796
30
0
40
1.0377499999999995
210
0
220
0
230
-1
0
ARC
5
153
100
AcDbEntity
8
INTERIOR_PROFILES
100
AcDbCircle
10
-8.9298613908911229
20
37.640928486253884
30
0
40
0.49999999254941074
210
-0
220
0
230
-1
100
AcDbArc
50
-16.302274117895873
51
163.69772588210415
0
SPLINE
5
154
100
AcDbEntity
8
INTERIOR_PROFILES
100
AcDbSpline
70
0
71
3
72
8
73
4
74
0
42
0.000000001
43
0.0000000001
44
0.0000000001
40
-0.25158674738103859
40
-0.25158674738103859
40
-0.25158674738103859
40
-0.25158674738103859
40
-0
40
-0
40
-0
40
-0
10
9.0341351721238574
20
35.201966444497316
30
0
10
8.8668490270301028
20
35.974625816027
30
0
10
8.6720189254151769
20
36.741320433734558
30
0
10
8.4499643223819696
20
37.500576086253979
30
0
0
SPLINE
5
155
100
AcDbEntity
8
INTERIOR_PROFILES
100
AcDbSpline
70
0
71
3
72
8
73
4
74
0
42
0.000000001
43
0.0000000001
44
0.0000000001
40
-0.25901390460570728
40
-0.25901390460570728
40
-0.25901390460570728
40
-0.25901390460570728
40
-0.2515867473817387
40
-0.2515867473817387
40
-0.2515867473817387
40
-0.2515867473817387
10
9.0488786420848921
20
35.133521258033213
30
0
10
9.0439881622641281
20
35.156341493210945
30
0
10
9.0390736695379417
20
35.179156568006306
30
0
10
9.0341351721252785
20
35.2019664444909
30
0
0
ARC
5
156
100
AcDbEntity
8
INTERIOR_PROFILES
100
AcDbCircle
10
-9.5302959516117358
20
35.273031702277784
30
0
40
0.50122429107672328
210
0
220
0
230
-1
100
AcDbArc
50
171.84894847146219
51
343.83888299410194
0
SPLINE
5
157
100
AcDbEntity
8
INTERIOR_PROFILES
100
AcDbSpline
70
0
71
3
72
8
73
4
74
0
42
0.000000001
43
0.0000000001
44
0.0000000001
40
0.25169488275554225
40
0.25169488275554225
40
0.25169488275554225
40
0.25169488275554225
40
0.25890552762695079
40
0.25890552762695079
40
0.25890552762695079
40
0.25890552762695079
10
10.011712759149539
20
35.412544458296601
30
0
10
10.016650725911347
20
35.389733652802803
30
0
10
10.021565386847243
20
35.366917800900573
30
0
10
10.026456734210223
20
35.344096938340435
30
0
0
SPLINE
5
158
100
AcDbEntity
8
INTERIOR_PROFILES
100
AcDbSpline
70
0
71
3
72
8
73
4
74
0
42
0.000000001
43
0.0000000001
44
0.0000000001
40
0
40
0
40
0
40
0
40
0.25169488160667447
40
0.25169488160667447
40
0.25169488160667447
40
0.25169488160667447
10
9.4097584594002814
20
37.781280886253789
30
0
10
9.6385867520994175
20
36.998864434106586
30
0
10
9.8393480122304346
20
36.208778799152228
30
0
10
10.011712756789176
20
35.412544469199823
30
0
0
SPLINE
5
159
100
AcDbEntity
8
INTERIOR_PROFILES
100
AcDbSpline
70
0
71
3
72
8
73
4
74
0
42
0.000000001
43
0.0000000001
44
0.0000000001
40
-0.25169488160667519
40
-0.25169488160667519
40
-0.25169488160667519
40
-0.25169488160667519
40
-0
40
-0
40
-0
40
-0
10
31.563051470956012
20
35.412544469199858
30
0
10
31.735416215514807
20
36.208778799152284
30
0
10
31.936177475645824
20
36.998864434106579
30
0
10
32.165005768344955
20
37.781280886253768
30
0
0
SPLINE
5
160
100
AcDbEntity
8
INTERIOR_PROFILES
100
AcDbSpline
70
0
71
3
72
8
73
4
74
0
42
0.000000001
43
0.0000000001
44
0.0000000001
40
-0.25890577013972987
40
-0.25890577013972987
40
-0.25890577013972987
40
-0.25890577013972987
40
-0.25169488160667536
40
-0.25169488160667536
40
-0.25169488160667536
40
-0.25169488160667536
10
31.548307000008787
20
35.344094635765117
30
0
10
31.553198511091615
20
35.366916269823427
30
0
10
31.558113337323235
20
35.38973289288635
30
0
10
31.563051470955976
20
35.412544469199801
30
0
0
ARC
5
161
100
AcDbEntity
8
INTERIOR_PROFILES
100
AcDbCircle
10
-32.044468276133486
20
35.273031702277777
30
0
40
0.50122445315601405
210
0
220
0
230
-1
100
AcDbArc
50
-163.83862231804261
51
8.1507829776421499
0
SPLINE
5
162
100
AcDbEntity
8
INTERIOR_PROFILES
100
AcDbSpline
70
0
71
3
72
8
73
4
74
0
42
0.000000001
43
0.0000000001
44
0.0000000001
40
0.25158674738103887
40
0.25158674738103887
40
0.25158674738103887
40
0.25158674738103887
40
0.259014147119006
40
0.259014147119006
40
0.259014147119006
40
0.259014147119006
10
32.540629055621352
20
35.201966444497359
30
0
10
32.535690396955196
20
35.179155823217123
30
0
10
32.530775744543249
20
35.156340003286658
30
0
10
32.525885106605116
20
35.133519022638012
30
0
0
SPLINE
5
163
100
AcDbEntity
8
INTERIOR_PROFILES
100
AcDbSpline
70
0
71
3
72
8
73
4
74
0
42
0.000000001
43
0.0000000001
44
0.0000000001
40
0
40
0
40
0
40
0
40
0.25158674616284143
40
0.25158674616284143
40
0.25158674616284143
40
0.25158674616284143
10
33.12479990536324
20
37.500576086253957
30
0
10
32.902745303405268
20
36.741320437410913
30
0
10
32.707915202601896
20
35.974625823451817
30
0
10
32.540629058051415
20
35.201966455721134
30
0
0
ARC
5
164
100
AcDbEntity
8
INTERIOR_PROFILES
100
AcDbCircle
10
-32.644902836854058
20
37.64092848625387
30
0
40
0.49999999254937427
210
0
220
0
230
-1
100
AcDbArc
50
16.302274117896399
51
196.30227411789568
0
CIRCLE
5
165
100
AcDbEntity
8
INTERIOR_PROFILES
100
AcDbCircle
10
-41.574764227744794
20
37.500000000000185
30
0
40
1.2999999999999989
210
0
220
0
230
-1
0
CIRCLE
5
166
100
AcDbEntity
8
INTERIOR_PROFILES
100
AcDbCircle
10
-7.1054273576010019e-14
20
37.499999999999993
30
0
40
1.2999999999999989
210
0
220
0
230
-1
0
CIRCLE
5
167
100
AcDbEntity
8
INTERIOR_PROFILES
100
AcDbCircle
10
4.4408920985006262e-15
20
2.5000000000000089
30
0
40
1.3
210
0
220
0
230
-1
0
CIRCLE
5
168
100
AcDbEntity
8
INTERIOR_PROFILES
100
AcDbCircle
10
-41.574764227744808
20
2.5000000000001976
30
0
40
1.3
210
0
220
0
230
-1
0
LINE
5
169
100
AcDbEntity
8
BEND
100
AcDbLine
10
5.2181910569363277
20
39.999999999999986
30
3.012352287014801e-14
11
5.2181910569362966
21
4.4408920985006262e-15
31
1.5317193951705057e-14
0
LINE
5
170
100
AcDbEntity
8
BEND
100
AcDbLine
10
36.356573170808851
20
-2.6645352591003757e-14
30
5.115670028324622e-13
11
36.356573170808879
21
39.999999999999993
31
5.1750579578064993e-13
0
LINE
5
171
100
AcDbEntity
8
BEND_EXTENT
100
AcDbLine
10
6.3193821138726047
20
39.999999999999972
30
3.3001124752275503e-14
11
6.3193821138725781
21
-2.2204460492503131e-14
31
3.3001124752275061e-14
0
LINE
5
172
100
AcDbEntity
8
BEND_EXTENT
100
AcDbLine
10
35.25538211387255
20
-3.1086244689504383e-14
30
4.8024706005768767e-13
11
35.255382113872578
21
39.999999999999964
31
4.846879521561887e-13
0
LINE
5
173
100
AcDbEntity
8
BEND_EXTENT
100
AcDbLine
10
37.457764227745251
20
39.999999999999993
30
5.5493196519086393e-13
11
37.457764227745209
21
-2.6645352591003757e-14
31
5.1940482840285822e-13
0
LINE
5
174
100
AcDbEntity
8
BEND_EXTENT
100
AcDbLine
10
4.1169999999999973
20
-1.3322676295501878e-14
30
1.1606924801108317e-14
11
4.1170000000000329
21
39.999999999999964
31
4.7134061589113831e-14
0
ENDSEC
0
SECTION
2
OBJECTS
0
DICTIONARY
5
C
100
AcDbDictionary
3
ACAD_GROUP
350
D
3
ACAD_MLINESTYLE
350
17
0
DICTIONARY
5
D
100
AcDbDictionary
0
DICTIONARY
5
1A
330
C
100
AcDbDictionary
0
DICTIONARY
5
17
100
AcDbDictionary
0
ENDSEC
0
EOF
