0
SECTION
2
HEADER
9
$INSUNITS
70
4
9
$ACADVER
1
AC1014
9
$HANDSEED
5
FFFF
0
ENDSEC
0
SECTION
2
TABLES
0
TABLE
2
VPORT
5
8
100
AcDbSymbolTable
0
ENDTAB
0
TABLE
2
LTYPE
5
5
100
AcDbSymbolTable
0
LTYPE
5
14
100
AcDbSymbolTableRecord
100
AcDbLinetypeTableRecord
2
BYBLOCK
70
0
0
LTYPE
5
15
100
AcDbSymbolTableRecord
100
AcDbLinetypeTableRecord
2
BYLAYER
70
0
0
ENDTAB
0
TABLE
2
LAYER
5
2
100
AcDbSymbolTable
70
2
0
LAYER
5
50
100
AcDbSymbolTableRecord
100
AcDbLayerTableRecord
2
0
70
0
6
CONTINUOUS
0
ENDTAB
0
TABLE
2
STYLE
5
3
100
AcDbSymbolTable
70
1
0
STYLE
5
11
100
AcDbSymbolTableRecord
100
AcDbTextStyleTableRecord
2
STANDARD
70
0
0
ENDTAB
0
TABLE
2
VIEW
5
6
100
AcDbSymbolTable
70
0
0
ENDTAB
0
TABLE
2
UCS
5
7
100
AcDbSymbolTable
70
0
0
ENDTAB
0
TABLE
2
APPID
5
9
100
AcDbSymbolTable
70
2
0
APPID
5
12
100
AcDbSymbolTableRecord
100
AcDbRegAppTableRecord
2
ACAD
70
0
0
ENDTAB
0
TABLE
2
DIMSTYLE
5
A
100
AcDbSymbolTable
70
1
0
ENDTAB
0
TABLE
2
BLOCK_RECORD
5
1
100
AcDbSymbolTable
70
1
0
BLOCK_RECORD
5
1F
100
AcDbSymbolTableRecord
100
AcDbBlockTableRecord
2
*MODEL_SPACE
0
BLOCK_RECORD
5
1B
100
AcDbSymbolTableRecord
100
AcDbBlockTableRecord
2
*PAPER_SPACE
0
ENDTAB
0
ENDSEC
0
SECTION
2
BLOCKS
0
BLOCK
5
20
100
AcDbEntity
100
AcDbBlockBegin
2
*MODEL_SPACE
0
ENDBLK
5
21
100
AcDbEntity
100
AcDbBlockEnd
0
BLOCK
5
1C
100
AcDbEntity
100
AcDbBlockBegin
2
*PAPER_SPACE
0
ENDBLK
5
1D
100
AcDbEntity
100
AcDbBlockEnd
0
ENDSEC
0
SECTION
2
ENTITIES
0
LWPOLYLINE
5
100
100
AcDbEntity
8
0
100
AcDbPolyline
90
4
70
1
43
0.0
10
-17.720225893233945
20
216.05281673837902
42
0.02856209455609093
10
-17.897099387156068
20
210.85034308703661
42
0.99999999999999989
10
-14.298061821850013
20
210.93358132053464
42
-0.028562094330120521
10
-14.135152028267068
20
215.7253333300489
42
1.0000000149011612
0
ARC
5
101
100
AcDbEntity
8
0
100
AcDbCircle
10
17.433704468369484
20
193.23812835806623
30
1.7763568394002505e-14
40
3.0709999999999709
210
-2.621255377284265e-15
220
-5.1562663867773039e-15
230
1
100
AcDbArc
50
63.052897950696156
51
163.27551661722308
0
ARC
5
102
100
AcDbEntity
8
0
100
AcDbCircle
10
1.4907097733872376
20
197.7551348011047
30
-1.408885523801473e-06
40
13.500000000000025
210
0
220
0
230
1
100
AcDbArc
50
191.61415981979098
51
344.38745068869957
0
LINE
5
103
100
AcDbEntity
8
0
100
AcDbLine
10
-11.73288483028152
20
195.03731476331279
30
-1.408885523801473e-06
11
-15.729323223542231
21
205.68986345067262
31
-1.4088853816929259e-06
0
ARC
5
104
100
AcDbEntity
8
0
100
AcDbCircle
10
-14.324904571244215
20
206.21674887377475
30
-1.4088853994564943e-06
40
1.5000000000000022
210
4.1985402609605688e-15
220
-1.1073129565892851e-14
230
1
100
AcDbArc
50
110.76496096544658
51
200.56421499656602
0
ARC
5
105
100
AcDbEntity
8
0
100
AcDbCircle
10
-16.097580604503001
20
210.89196220378562
30
-1.4088854172200627e-06
40
3.5000000000001474
210
-3.5987487951083017e-15
220
9.491253913622289e-15
230
1
100
AcDbArc
50
-69.235039034557545
51
1.3248963258340658
0
ARC
5
106
100
AcDbEntity
8
0
100
AcDbCircle
10
27.690709773387425
20
211.90469404467891
30
-1.4088854172200627e-06
40
40.300000000000331
210
0
220
0
230
1
100
AcDbArc
50
177.73571297945568
51
181.32489564655353
0
ARC
5
107
100
AcDbEntity
8
0
100
AcDbCircle
10
-11.07899578889727
20
213.43764238489592
30
-1.4088853994564943e-06
40
1.5000000000000291
210
-1.0772135749792795e-15
220
-1.1793284089677166e-14
230
1
100
AcDbArc
50
84.781012841788026
51
177.73571297945662
0
LINE
5
108
100
AcDbEntity
8
0
100
AcDbLine
10
-10.942551889228902
20
214.93142384891377
30
-1.4088853816929259e-06
11
-5.5946693604150965
21
214.44294145388054
31
-1.4088855770921782e-06
0
ARC
5
109
100
AcDbEntity
8
0
100
AcDbCircle
10
-5.2308189612994305
20
218.42635869126144
30
-1.4088853639293575e-06
40
4.0000000000000089
210
-4.8474610874071608e-15
220
-5.3069778403548129e-14
230
1
100
AcDbArc
50
264.78101284178774
51
337.82379875235171
0
ARC
5
110
100
AcDbEntity
8
0
100
AcDbCircle
10
5.8815104071808477
20
213.89688454888989
30
-1.408885523801473e-06
40
8.0000000000001332
210
4.3480210360212205e-15
220
9.0345763643991622e-16
230
1
100
AcDbArc
50
11.738226931223798
51
157.82379875234975
0
ARC
5
111
100
AcDbEntity
8
0
100
AcDbCircle
10
17.63055795775589
20
216.33817143377939
30
-1.4088854172200627e-06
40
4.0000000000001528
210
-3.4784168288169202e-14
220
-7.2276610915182269e-15
230
1
100
AcDbArc
50
191.73822693122227
51
264.78101284178803
0
LINE
5
112
100
AcDbEntity
8
0
100
AcDbLine
10
17.266707558640242
20
212.35475419639846
30
-1.4088854172200627e-06
11
23.081650719775091
21
211.82360988890298
31
-1.4088854527471995e-06
0
ARC
5
113
100
AcDbEntity
8
0
100
AcDbCircle
10
22.945206820106669
20
210.32982842488514
30
-1.4088852573479471e-06
40
1.5000000000000266
210
0
220
-0
230
1
100
AcDbArc
50
18.359191319987922
51
84.781012841785994
0
ARC
5
114
100
AcDbEntity
8
0
100
AcDbCircle
10
27.690709773387425
20
211.90469404467891
30
-1.4088854172200627e-06
40
3.5000000000004476
210
4.3352776941183911e-14
220
1.4387262762119079e-14
230
1
100
AcDbArc
50
198.35919131999063
51
228.22478724617272
0
ARC
5
115
100
AcDbEntity
8
0
100
AcDbCircle
10
24.359660269583365
20
208.17587262186822
30
-1.4088854349836311e-06
40
1.4999999999999902
210
-1.8824681622551244e-14
220
1.4373556158217058e-14
230
1
100
AcDbArc
50
-37.363486968055767
51
48.224787246174266
0
ARC
5
116
100
AcDbEntity
8
0
100
AcDbCircle
10
50.190709773386715
20
188.45261524556162
30
-1.4088854172200627e-06
40
30.999999999999591
210
4.5543584570688546e-16
220
-3.4774732640848272e-16
230
1
100
AcDbArc
50
142.63651303194342
51
163.89320116169461
0
ARC
5
117
100
AcDbEntity
8
0
100
AcDbCircle
10
18.966456952245299
20
197.46904667711203
30
0.00018491861587343117
40
1.5000000000006266
210
8.8336808833019883e-08
220
9.3509371780413785e-07
230
0.99999999999955902
100
AcDbArc
50
264.60337492840671
51
343.89320116169677
0
LINE
5
118
100
AcDbEntity
8
0
100
AcDbLine
10
-10.709290226612787
20
186.61507501400007
30
-1.4088855415650414e-06
11
-10.709290226613
21
182.08181838914609
31
-1.4088853639293575e-06
0
ARC
5
119
100
AcDbEntity
8
0
100
AcDbCircle
10
-8.7092902266130068
20
182.08181838914609
30
-1.4088854349836311e-06
40
1.9999999999999929
210
3.5527136788005136e-14
220
0
230
1
100
AcDbArc
50
180
51
221.40962210926997
0
ARC
5
120
100
AcDbEntity
8
0
100
AcDbCircle
10
-7.2092902266130405
20
183.40469404467802
30
-1.1792934490822199e-05
40
4.0000000000000417
210
-6.9595799123689358e-08
220
-6.1377725592028534e-08
230
0.99999999999999567
100
AcDbArc
50
221.40962210927009
51
254.17337986812854
0
ARC
5
121
100
AcDbEntity
8
0
100
AcDbCircle
10
-8.709290226612918
20
178.11319142254916
30
-1.4088854349836311e-06
40
1.5000000000000036
210
0
220
0
230
1
100
AcDbArc
50
0
51
74.173379868128876
0
LINE
5
122
100
AcDbEntity
8
0
100
AcDbLine
10
-7.2092902266129144
20
178.11319142254916
30
-1.4088854349836311e-06
11
-7.2092902266129144
21
175.90469404467888
31
-1.0377078218937186e-06
0
ARC
5
123
100
AcDbEntity
8
0
100
AcDbCircle
10
-4.2092902266127012
20
175.90469404467893
30
-1.929683620064387e-06
40
3.0000000000000298
210
1.2372588287234854e-07
220
0
230
0.99999999999999245
100
AcDbArc
50
180
51
270
0
LINE
5
124
100
AcDbEntity
8
0
100
AcDbLine
10
-4.2092902266129073
20
172.90469404467888
30
-1.4088854705107678e-06
11
-3.7092902266129357
21
172.90469404467888
31
-1.4088853816929259e-06
0
ARC
5
125
100
AcDbEntity
8
0
100
AcDbCircle
10
-3.7092902266129357
20
175.90469404467888
30
-1.4088854705107678e-06
40
3.0000000000000071
210
0
220
2.960594732333744e-14
230
1
100
AcDbArc
50
-90
51
0
0
LINE
5
126
100
AcDbEntity
8
0
100
AcDbLine
10
-0.70929022661292862
20
175.90469404467888
30
-1.4088854705107678e-06
11
-0.70929022661291086
21
177.90469404467839
31
-1.4088853994564943e-06
0
ARC
5
127
100
AcDbEntity
8
0
100
AcDbCircle
10
0.7907097733870927
20
177.90469404467839
30
-1.4088854527471995e-06
40
1.5000000000000213
210
0
220
-2.368475785866967e-14
230
1
100
AcDbArc
50
90
51
180
0
LINE
5
128
100
AcDbEntity
8
0
100
AcDbLine
10
0.7907097733870927
20
179.40469404467842
30
-1.4088854172200627e-06
11
1.2907097733870998
21
179.40469404467837
31
-1.0377078218937186e-06
0
LINE
5
129
100
AcDbEntity
8
0
100
AcDbLine
10
1.2907097733870998
20
179.40469404467837
30
-1.0377078218937186e-06
11
3.8513699451669225
21
181.96535421645822
31
-1.0377078218937186e-06
0
ARC
5
130
100
AcDbEntity
8
0
100
AcDbCircle
10
4.9120301169467595
20
180.90469404467837
30
-1.4088854349836311e-06
40
1.5000000000000213
210
0
220
-0
230
1
100
AcDbArc
50
90
51
134.99999999999767
0
LINE
5
131
100
AcDbEntity
8
0
100
AcDbLine
10
4.9120301169467595
20
182.40469404467837
30
-1.4088854349836311e-06
11
6.6693894298274259
21
182.40469404467842
31
-1.0377078218937186e-06
0
ARC
5
132
100
AcDbEntity
8
0
100
AcDbCircle
10
6.6693894298274259
20
180.90469404467837
30
-1.4088854349836311e-06
40
1.5000000000000222
210
0
220
-0
230
1
100
AcDbArc
50
44.999999999999808
51
90
0
LINE
5
133
100
AcDbEntity
8
0
100
AcDbLine
10
7.7300496016072628
20
181.96535421645819
30
-1.4088854349836311e-06
11
10.290709773387086
21
179.40469404467842
31
-1.0377078218937186e-06
0
LINE
5
134
100
AcDbEntity
8
0
100
AcDbLine
10
10.290709773387086
20
179.40469404467842
30
-1.0377078218937186e-06
11
10.790709773387128
21
179.40469404467842
31
-1.4088854172200627e-06
0
ARC
5
135
100
AcDbEntity
8
0
100
AcDbCircle
10
10.790709773387128
20
177.90469404467842
30
-1.4088854527471995e-06
40
1.4999999999999858
210
-1.1842378929335116e-14
220
0
230
1
100
AcDbArc
50
0
51
90
0
LINE
5
136
100
AcDbEntity
8
0
100
AcDbLine
10
12.290709773387114
20
177.90469404467842
30
-1.4088854349836311e-06
11
12.290709773387114
21
175.90469404467839
31
-1.4088854349836311e-06
0
ARC
5
137
100
AcDbEntity
8
0
100
AcDbCircle
10
15.290709773387086
20
175.90469404467839
30
-1.4088854882743362e-06
40
2.9999999999999716
210
1.7763568394002675e-14
220
0
230
1
100
AcDbArc
50
180
51
270
0
LINE
5
138
100
AcDbEntity
8
0
100
AcDbLine
10
15.290709773387086
20
172.90469404467842
30
-1.4088854882743362e-06
11
15.790709773387057
21
172.90469404467839
31
-1.4088854349836311e-06
0
ARC
5
139
100
AcDbEntity
8
0
100
AcDbCircle
10
15.790709773387057
20
175.90469404467839
30
-1.4088854882743362e-06
40
3.0000000000000071
210
0
220
1.7763568394002464e-14
230
1
100
AcDbArc
50
-90
51
0
0
LINE
5
140
100
AcDbEntity
8
0
100
AcDbLine
10
18.790709773387064
20
175.90469404467839
30
-1.4088854882743362e-06
11
18.790709773387064
21
178.11319142254916
31
-1.0377078574208554e-06
0
ARC
5
141
100
AcDbEntity
8
0
100
AcDbCircle
10
20.29070977338705
20
178.11319142254919
30
-1.4088854527471995e-06
40
1.4999999999999958
210
0
220
0
230
1
100
AcDbArc
50
105.82662013187172
51
180.00001418395308
0
ARC
5
142
100
AcDbEntity
8
0
100
AcDbCircle
10
18.790709773387086
20
183.40469404467757
30
-1.6935925119485324e-05
40
4.0000000000000293
210
2.5307563317705075e-08
220
-8.9276691770224519e-08
230
0.99999999999999567
100
AcDbArc
50
285.8266201318724
51
318.59037789072784
0
ARC
5
143
100
AcDbEntity
8
0
100
AcDbCircle
10
20.290709773386624
20
182.0818183891453
30
1.8118353076337724e-05
40
2.0000000000000289
210
-1.3919159158603472e-07
220
1.2275544530931461e-07
230
0.9999999999999829
100
AcDbArc
50
-41.409622109273073
51
7.9175710768455929e-06
0
LINE
5
144
100
AcDbEntity
8
0
100
AcDbLine
10
22.290709773387007
20
182.08181838914609
30
-1.4088854527471995e-06
11
22.290709773387007
21
184.72756970021069
31
-1.4088854349836311e-06
0
ARC
5
145
100
AcDbEntity
8
0
100
AcDbCircle
10
20.290709773387015
20
184.72756970021069
30
-1.4088854882743362e-06
40
1.9999999999999929
210
-2.6645352591003852e-14
220
0
230
1
100
AcDbArc
50
0
51
41.40962210927313
0
ARC
5
146
100
AcDbEntity
8
0
100
AcDbCircle
10
18.790709773387093
20
183.40469404467808
30
1.1527010791351816e-05
40
3.9999999999999822
210
6.9595805785026301e-08
220
6.1377731466780057e-08
230
0.99999999999999578
100
AcDbArc
50
41.409622109271773
51
44.839002747298025
0
ARC
5
147
100
AcDbEntity
8
0
100
AcDbCircle
10
22.69070977338707
20
187.28283793061141
30
-1.4088854527471995e-06
40
1.4999999999999858
210
0
220
0
230
1
100
AcDbArc
50
180
51
224.8390027472999
0
LINE
5
148
100
AcDbEntity
8
0
100
AcDbLine
10
21.190709773387084
20
187.28283793061141
30
-1.4088854527471995e-06
11
21.190709773387084
21
188.45261524556147
31
-1.0377078218937186e-06
0
ARC
5
149
100
AcDbEntity
8
0
100
AcDbCircle
10
50.190709773386715
20
188.45261524556162
30
-1.4088854172200627e-06
40
28.999999999999556
210
8.4812793393116863e-16
220
-8.8401613947938279e-16
230
1
100
AcDbArc
50
133.81306146040328
51
180
0
ARC
5
150
100
AcDbEntity
8
0
100
AcDbCircle
10
27.690709773387425
20
211.90469404467891
30
-1.4088854172200627e-06
40
3.5000000000000582
210
-7.0273457382851837e-15
220
7.3247051556874417e-15
230
1
100
AcDbArc
50
-46.186938539607752
51
137.91111519594946
0
ARC
5
151
100
AcDbEntity
8
0
100
AcDbCircle
10
23.980180335342958
20
215.25610737182996
30
-1.0377080172929709e-06
40
1.5000000000000306
210
1.0772135749794176e-15
220
1.1793284089677143e-14
230
1
100
AcDbArc
50
264.78101284178751
51
317.91111519594597
0
LINE
5
152
100
AcDbEntity
8
0
100
AcDbLine
10
23.843736435674572
20
213.76232590781206
30
-1.0377079995294025e-06
11
17.448632758197924
21
214.34646281508884
31
-1.4088855060379046e-06
0
ARC
5
153
100
AcDbEntity
8
0
100
AcDbCircle
10
17.63055795775589
20
216.33817143377939
30
-1.4088854172200627e-06
40
2.0000000000001785
210
-4.3480210360208633e-14
220
-9.0345763644004097e-15
230
1
100
AcDbArc
50
191.73822693122665
51
264.78101284178422
0
ARC
5
154
100
AcDbEntity
8
0
100
AcDbCircle
10
5.8815104071808477
20
213.89688454888989
30
-1.408885523801473e-06
40
10.000000000000107
210
-1.7392084144085054e-15
220
-3.6138305457593442e-16
230
1
100
AcDbArc
50
11.738226931222643
51
157.82379875235091
0
ARC
5
155
100
AcDbEntity
8
0
100
AcDbCircle
10
-5.2308189612994305
20
218.42635869126144
30
-1.4088853639293575e-06
40
2.0000000000001563
210
-5.6553712686444183e-15
220
-6.1914741470801159e-14
230
1
100
AcDbArc
50
264.7810128417849
51
337.82379875233823
0
LINE
5
156
100
AcDbEntity
8
0
100
AcDbLine
10
-5.412744160857379
20
216.43465007257083
30
-1.4088854882743362e-06
11
-11.807683494134977
21
217.0187719684391
31
-1.0377079462386973e-06
0
ARC
5
157
100
AcDbEntity
8
0
100
AcDbCircle
10
-11.671239594466609
20
218.51255343245697
30
-1.0377079107115605e-06
40
1.4999999999999938
210
-4.0325189014906062e-14
220
-2.48545800649989e-14
230
1
100
AcDbArc
50
211.64775856260974
51
264.78101284178814
0
ARC
5
158
100
AcDbEntity
8
0
100
AcDbCircle
10
-15.927688959025241
20
215.88907505310107
30
-1.1983940940762616e-05
40
3.4999999999997469
210
-9.0279883387304939e-08
220
-5.5644341532510746e-08
230
0.99999999999999445
100
AcDbArc
50
31.647758562608541
51
174.7807249888088
0
ARC
5
159
100
AcDbEntity
8
0
100
AcDbCircle
10
27.690709773387432
20
211.90469404467891
30
-1.343757196810232e-06
40
47.30000000000031
210
7.8147688678158383e-09
220
-7.1385052104162896e-10
230
1
100
AcDbArc
50
174.78072498881593
51
181.32489570083436
0
ARC
5
160
100
AcDbEntity
8
0
100
AcDbCircle
10
-16.097580604502763
20
210.89196220378565
30
-2.5984661543547705e-06
40
3.5000000000003189
210
1.060223946754847e-07
220
2.4520768910890533e-09
230
0.99999999999999445
100
AcDbArc
50
181.3248957008382
51
206.29919065064087
0
LINE
5
161
100
AcDbEntity
8
0
100
AcDbLine
10
-19.235305016122162
20
209.34125735864848
30
-1.0377078574208554e-06
11
-10.709290226612787
21
186.61507501400007
31
-1.4088855415650414e-06
0
CIRCLE
5
162
100
AcDbEntity
8
0
100
AcDbCircle
10
17.433704468369484
20
193.23812835806623
30
1.7763568394002505e-14
40
1.0999999999999943
210
-1.4649729483403756e-15
220
0
230
1
0
CIRCLE
5
163
100
AcDbEntity
8
0
100
AcDbCircle
10
27.690709773387425
20
211.90469404467891
30
-1.4088854172200627e-06
40
1.8000000000000003
210
2.5399088462727844e-31
220
0
230
1
0
CIRCLE
5
164
100
AcDbEntity
8
0
100
AcDbCircle
10
4.2092902266131027
20
176.90469404467848
30
1.4088854552314323e-06
40
1.3499999999999979
210
3.6299078463594166e-15
220
3.1554436208840367e-30
230
-1
0
CIRCLE
5
165
100
AcDbEntity
8
0
100
AcDbCircle
10
-7.2092902266129855
20
183.40469404467839
30
-1.0377078218937186e-06
40
1.7000000002615501
210
-3.8926146265496263e-23
220
-8.7373028482815796e-23
230
1
0
CIRCLE
5
166
100
AcDbEntity
8
0
100
AcDbCircle
10
18.790709773387064
20
183.40469404467839
30
-1.0377078574208554e-06
40
1.7000000002615323
210
-3.8926146068281037e-23
220
-8.7373028482815796e-23
230
1
0
CIRCLE
5
167
100
AcDbEntity
8
0
100
AcDbCircle
10
-15.790709773387093
20
176.90469404467848
30
1.4088854750036017e-06
40
1.3500000000000156
210
1.4094617971091134e-15
220
1.5777218104420184e-30
230
-1
0
ENDSEC
0
SECTION
2
OBJECTS
0
DICTIONARY
5
C
100
AcDbDictionary
3
ACAD_GROUP
350
D
3
ACAD_MLINESTYLE
350
17
0
DICTIONARY
5
D
100
AcDbDictionary
0
DICTIONARY
5
1A
330
C
100
AcDbDictionary
0
DICTIONARY
5
17
100
AcDbDictionary
0
ENDSEC
0
EOF
