0
SECTION
2
HEADER
9
$INSUNITS
70
4
9
$ACADVER
1
AC1014
9
$HANDSEED
5
FFFF
0
ENDSEC
0
SECTION
2
TABLES
0
TABLE
2
VPORT
5
8
100
AcDbSymbolTable
0
ENDTAB
0
TABLE
2
LTYPE
5
5
100
AcDbSymbolTable
0
LTYPE
5
14
100
AcDbSymbolTableRecord
100
AcDbLinetypeTableRecord
2
BYBLOCK
70
0
0
LTYPE
5
15
100
AcDbSymbolTableRecord
100
AcDbLinetypeTableRecord
2
BYLAYER
70
0
0
ENDTAB
0
TABLE
2
LAYER
5
2
100
AcDbSymbolTable
70
2
0
LAYER
5
50
100
AcDbSymbolTableRecord
100
AcDbLayerTableRecord
2
0
70
0
6
CONTINUOUS
0
ENDTAB
0
TABLE
2
STYLE
5
3
100
AcDbSymbolTable
70
1
0
STYLE
5
11
100
AcDbSymbolTableRecord
100
AcDbTextStyleTableRecord
2
STANDARD
70
0
0
ENDTAB
0
TABLE
2
VIEW
5
6
100
AcDbSymbolTable
70
0
0
ENDTAB
0
TABLE
2
UCS
5
7
100
AcDbSymbolTable
70
0
0
ENDTAB
0
TABLE
2
APPID
5
9
100
AcDbSymbolTable
70
2
0
APPID
5
12
100
AcDbSymbolTableRecord
100
AcDbRegAppTableRecord
2
ACAD
70
0
0
ENDTAB
0
TABLE
2
DIMSTYLE
5
A
100
AcDbSymbolTable
70
1
0
ENDTAB
0
TABLE
2
BLOCK_RECORD
5
1
100
AcDbSymbolTable
70
1
0
BLOCK_RECORD
5
1F
100
AcDbSymbolTableRecord
100
AcDbBlockTableRecord
2
*MODEL_SPACE
0
BLOCK_RECORD
5
1B
100
AcDbSymbolTableRecord
100
AcDbBlockTableRecord
2
*PAPER_SPACE
0
ENDTAB
0
ENDSEC
0
SECTION
2
BLOCKS
0
BLOCK
5
20
100
AcDbEntity
100
AcDbBlockBegin
2
*MODEL_SPACE
0
ENDBLK
5
21
100
AcDbEntity
100
AcDbBlockEnd
0
BLOCK
5
1C
100
AcDbEntity
100
AcDbBlockBegin
2
*PAPER_SPACE
0
ENDBLK
5
1D
100
AcDbEntity
100
AcDbBlockEnd
0
ENDSEC
0
SECTION
2
ENTITIES
0
LWPOLYLINE
5
100
100
AcDbEntity
8
0
100
AcDbPolyline
90
4
70
1
43
0.0
10
0.4092902266135745
20
51.704694044416442
10
-11.990709773386428
20
51.704694044416435
42
-0.99999999999999989
10
-11.990709773386428
20
55.104694044939521
10
0.4092902266135745
20
55.104694044939542
42
-0.99999999999999989
0
LWPOLYLINE
5
101
100
AcDbEntity
8
0
100
AcDbPolyline
90
29
70
1
43
0.0
10
-18.790709947330981
20
49.404694044677996
42
0.083920227848483811
10
-17.47602537714204
20
49.626916266900224
42
-0.083920216900373656
10
-15.832669881836594
20
49.904694044677989
10
4.2512503350637409
20
49.904694044677981
42
-0.083920216900373767
10
5.8946058303691906
20
49.62691626690021
42
0.083920216900384065
10
7.2092902266135539
20
49.404694044677974
10
9.7092902266135361
20
49.404694044677974
42
0.41421356237309503
10
10.709290226613533
20
50.404694044677967
10
10.70929022661355
20
54.727569700210296
42
0.18267581368160429
10
10.209290226613525
20
56.05044535574261
42
0.21525043702152891
10
7.2092902266135361
20
57.404694044677996
10
3.2092902266133012
20
57.404694044678017
42
-0.18963206120036932
10
-0.19753952079922865
20
58.744979428461967
42
-0.5638163291077295
10
0.50121684027772084
20
62.095432656487226
42
0.75589378438689347
10
-0.21570977338660716
20
73.618101200462448
42
-0.35279869617964971
10
-1.7907097733867161
20
75.572423333581753
10
-1.7907097733866806
20
77.904694044677981
42
0.4142135623730957
10
-5.7907097733866664
20
81.904694044677996
42
0.41421356237309503
10
-9.7907097882878702
20
77.904694044677981
10
-9.7907097882878631
20
72.985813528509837
42
-0.32489821443603595
10
-11.172527964687333
20
71.083748536725921
42
0.72630622649661103
10
-11.174069896015675
20
64.427022596761105
42
-0.31369750984051042
10
-9.7947481798620686
20
62.605610960680394
42
-0.42603577736821308
10
-14.790709788287835
20
57.404694044677967
10
-18.790709773386425
20
57.404694044677981
42
0.21525043702152996
10
-21.790709773386396
20
56.050445355742589
42
0.18267581368160277
10
-22.290709773386403
20
54.727569700210275
10
-22.290709773386368
20
50.404694044677996
42
0.41421356237309764
10
-21.290709773386354
20
49.404694044677989
0
CIRCLE
5
102
100
AcDbEntity
8
0
100
AcDbCircle
10
-5.7907097733866664
20
58.604694044939635
30
0
40
1.7999999999999887
210
5.6775658322034709e-32
220
-7.8886090522101153e-30
230
1
0
CIRCLE
5
103
100
AcDbEntity
8
0
100
AcDbCircle
10
-5.7907097733866664
20
77.904694044677981
30
1.7763568394002505e-14
40
1.8000000000000003
210
2.5399088462728755e-31
220
-7.8886090522101153e-30
230
1
0
CIRCLE
5
104
100
AcDbEntity
8
0
100
AcDbCircle
10
1.490709773386456
20
67.755134801104077
30
-3.7117759487512212e-07
40
3.9999999999999858
210
-3.0268937339714529e-16
220
0
230
-1
0
CIRCLE
5
105
100
AcDbEntity
8
0
100
AcDbCircle
10
10.090709773386415
20
67.755134801104091
30
-3.7117759227199347e-07
40
1.4999999999999858
210
-3.0268937339714529e-16
220
0
230
-1
0
CIRCLE
5
106
100
AcDbEntity
8
0
100
AcDbCircle
10
-7.2092902266135539
20
53.404694044677996
30
-4.3854999666283732e-21
40
1.7000000002615501
210
3.8926146462711601e-23
220
-8.7373028482816055e-23
230
-1
0
CIRCLE
5
107
100
AcDbEntity
8
0
100
AcDbCircle
10
18.790709773386425
20
53.404694044678024
30
-3.5527142185584783e-14
40
1.7000000002615323
210
3.8926146265496375e-23
220
-8.7373028482816055e-23
230
-1
0
ENDSEC
0
SECTION
2
OBJECTS
0
DICTIONARY
5
C
100
AcDbDictionary
3
ACAD_GROUP
350
D
3
ACAD_MLINESTYLE
350
17
0
DICTIONARY
5
D
100
AcDbDictionary
0
DICTIONARY
5
1A
330
C
100
AcDbDictionary
0
DICTIONARY
5
17
100
AcDbDictionary
0
ENDSEC
0
EOF
