0
SECTION
2
HEADER
9
$INSUNITS
70
4
9
$ACADVER
1
AC1014
9
$HANDSEED
5
FFFF
0
ENDSEC
0
SECTION
2
TABLES
0
TABLE
2
VPORT
5
8
100
AcDbSymbolTable
0
ENDTAB
0
TABLE
2
LTYPE
5
5
100
AcDbSymbolTable
0
LTYPE
5
14
100
AcDbSymbolTableRecord
100
AcDbLinetypeTableRecord
2
BYBLOCK
70
0
0
LTYPE
5
15
100
AcDbSymbolTableRecord
100
AcDbLinetypeTableRecord
2
BYLAYER
70
0
0
ENDTAB
0
TABLE
2
LAYER
5
2
100
AcDbSymbolTable
70
2
0
LAYER
5
50
100
AcDbSymbolTableRecord
100
AcDbLayerTableRecord
2
0
70
0
6
CONTINUOUS
0
ENDTAB
0
TABLE
2
STYLE
5
3
100
AcDbSymbolTable
70
1
0
STYLE
5
11
100
AcDbSymbolTableRecord
100
AcDbTextStyleTableRecord
2
STANDARD
70
0
0
ENDTAB
0
TABLE
2
VIEW
5
6
100
AcDbSymbolTable
70
0
0
ENDTAB
0
TABLE
2
UCS
5
7
100
AcDbSymbolTable
70
0
0
ENDTAB
0
TABLE
2
APPID
5
9
100
AcDbSymbolTable
70
2
0
APPID
5
12
100
AcDbSymbolTableRecord
100
AcDbRegAppTableRecord
2
ACAD
70
0
0
ENDTAB
0
TABLE
2
DIMSTYLE
5
A
100
AcDbSymbolTable
70
1
0
ENDTAB
0
TABLE
2
BLOCK_RECORD
5
1
100
AcDbSymbolTable
70
1
0
BLOCK_RECORD
5
1F
100
AcDbSymbolTableRecord
100
AcDbBlockTableRecord
2
*MODEL_SPACE
0
BLOCK_RECORD
5
1B
100
AcDbSymbolTableRecord
100
AcDbBlockTableRecord
2
*PAPER_SPACE
0
ENDTAB
0
ENDSEC
0
SECTION
2
BLOCKS
0
BLOCK
5
20
100
AcDbEntity
100
AcDbBlockBegin
2
*MODEL_SPACE
0
ENDBLK
5
21
100
AcDbEntity
100
AcDbBlockEnd
0
BLOCK
5
1C
100
AcDbEntity
100
AcDbBlockBegin
2
*PAPER_SPACE
0
ENDBLK
5
1D
100
AcDbEntity
100
AcDbBlockEnd
0
ENDSEC
0
SECTION
2
ENTITIES
0
LWPOLYLINE
5
100
100
AcDbEntity
8
0
100
AcDbPolyline
90
4
70
1
43
0.0
10
-17.720225893233874
20
216.05281673837879
42
0.02856209455609093
10
-17.897099387155997
20
210.85034308703641
42
0.99999999999999989
10
-14.298061821849981
20
210.93358132053439
42
-0.028562094330120521
10
-14.135152028267033
20
215.72533333004867
42
0.99999999999999989
0
LWPOLYLINE
5
101
100
AcDbEntity
8
0
100
AcDbPolyline
90
10
70
1
43
0.0
10
14.792826970066848
20
207.03172039179336
42
0.057468255548293906
10
15.550575427203093
20
209.19395236694871
42
-0.37629490329583287
10
17.150120953285608
20
210.35707746737404
10
21.742555807081271
20
209.93759862423752
42
-0.24539268395661579
10
22.909954307264506
20
209.18543363546081
42
0.014903075619034192
10
23.080438450184136
20
208.9054610883291
42
-0.30446940191750221
10
23.05646642340086
20
207.23379832394374
42
0.056730495868852496
10
19.529676439004618
20
200.65511641818495
42
-0.74384023237539265
10
16.667291635132177
20
200.90495431875178
42
0.081992581009000545
10
14.849481926040857
20
205.61600031156078
42
-0.25102201306686067
0
LINE
5
102
100
AcDbEntity
8
0
100
AcDbLine
10
21.19070977338712
20
187.28283793061115
30
3.711775775627757e-07
11
21.19070977338712
21
188.45261524556122
31
3.7117759532634409e-07
0
ARC
5
103
100
AcDbEntity
8
0
100
AcDbCircle
10
50.190709773386821
20
188.45261524556147
30
7.1054273576010019e-14
40
28.999999999999527
210
-8.4812793393117326e-16
220
8.8401613947938002e-16
230
1
100
AcDbArc
50
133.8130614604035
51
180
0
ARC
5
104
100
AcDbEntity
8
0
100
AcDbCircle
10
27.690709773387496
20
211.90469404467871
30
1.7763568394002505e-14
40
3.5000000000000591
210
-3.5136728691425386e-15
220
3.6623525778437706e-15
230
1
100
AcDbArc
50
-46.186938539608818
51
137.91111519595421
0
ARC
5
105
100
AcDbEntity
8
0
100
AcDbCircle
10
23.980180335342922
20
215.25610737182959
30
3.7117754203563891e-07
40
1.5000000000000306
210
1.0772135749794176e-15
220
1.1793284089677143e-14
230
1
100
AcDbArc
50
264.78101284178746
51
317.91111519594239
0
LINE
5
106
100
AcDbEntity
8
0
100
AcDbLine
10
23.843736435674536
20
213.76232590781171
30
3.711775597992073e-07
11
17.448632758197817
21
214.34646281508839
31
3.7117754203563891e-07
0
ARC
5
107
100
AcDbEntity
8
0
100
AcDbCircle
10
17.630557957755713
20
216.33817143377888
30
5.3290705182007514e-14
40
1.9999999999999756
210
0
220
0
230
1
100
AcDbArc
50
191.73822693122293
51
264.78101284178621
0
ARC
5
108
100
AcDbEntity
8
0
100
AcDbCircle
10
5.8815104071807953
20
213.89688454888955
30
2.200110814092277e-06
40
10.000000000000156
210
3.6341518113934204e-08
220
7.551256488376008e-09
230
0.99999999999999944
100
AcDbArc
50
11.738226931222737
51
157.82379875235117
0
ARC
5
109
100
AcDbEntity
8
0
100
AcDbCircle
10
-5.2308189612996081
20
218.42635869126093
30
5.3290705182007514e-14
40
2.0000000000000049
210
0
220
0
230
1
100
AcDbArc
50
264.78101284178751
51
337.82379875234903
0
LINE
5
110
100
AcDbEntity
8
0
100
AcDbLine
10
-5.41274416085745
20
216.43465007257046
30
5.3290705182007514e-14
11
-11.807683494135048
21
217.01877196843873
31
3.711775775627757e-07
0
ARC
5
111
100
AcDbEntity
8
0
100
AcDbCircle
10
-11.67123959446668
20
218.51255343245663
30
3.7117763085348088e-07
40
1.4999999999999938
210
-3.0243891761179548e-14
220
-1.8640935048749176e-14
230
1
100
AcDbArc
50
211.64775856260974
51
264.78101284178825
0
ARC
5
112
100
AcDbEntity
8
0
100
AcDbCircle
10
-15.92768895902508
20
215.88907505310092
30
-1.0575059048438031e-05
40
3.4999999999995812
210
-9.0279913631201991e-08
220
-5.5644360173446745e-08
230
0.99999999999999445
100
AcDbArc
50
31.647758562607859
51
174.78072498880843
0
ARC
5
113
100
AcDbEntity
8
0
100
AcDbCircle
10
27.690709773387496
20
211.90469404467871
30
6.512825375771649e-08
40
47.300000000000381
210
7.8147707377860195e-09
220
-7.1385069185655668e-10
230
1
100
AcDbArc
50
174.78072498881602
51
181.32489570083436
0
ARC
5
114
100
AcDbEntity
8
0
100
AcDbCircle
10
-16.097580604502877
20
210.89196220378543
30
-1.1895805877468156e-06
40
3.5000000000003024
210
1.0602238452758831e-07
220
2.4520766563915376e-09
230
0.99999999999999445
100
AcDbArc
50
181.32489570083899
51
206.29919065064215
0
LINE
5
115
100
AcDbEntity
8
0
100
AcDbLine
10
-19.235305016122126
20
209.34125735864814
30
3.7117759532634409e-07
11
-10.70929022661284
21
186.61507501399973
31
0
0
LINE
5
116
100
AcDbEntity
8
0
100
AcDbLine
10
-10.70929022661284
20
186.61507501399973
30
0
11
-10.709290226612964
21
182.08181838914584
31
5.3290705182007514e-14
0
ARC
5
117
100
AcDbEntity
8
0
100
AcDbCircle
10
-8.7092902266129713
20
182.08181838914584
30
0
40
1.9999999999999929
210
2.6645352591003852e-14
220
0
230
1
100
AcDbArc
50
180
51
221.40962210927026
0
ARC
5
118
100
AcDbEntity
8
0
100
AcDbCircle
10
-7.2092902266129064
20
183.40469404467794
30
-1.0384050067507944e-05
40
4.0000000000000515
210
-6.9595805785026738e-08
220
-6.1377731466777092e-08
230
0.99999999999999578
100
AcDbArc
50
221.40962210927111
51
254.17337986812885
0
ARC
5
119
100
AcDbEntity
8
0
100
AcDbCircle
10
-8.7092902266128824
20
178.11319142254891
30
0
40
1.5000000000000036
210
0
220
-0
230
1
100
AcDbArc
50
59.429245846571519
51
74.173379868128421
0
LINE
5
120
100
AcDbEntity
8
0
100
AcDbLine
10
-7.946387233412846
20
179.40469404467805
30
0
11
1.2907097733871353
21
179.40469404467814
31
3.7117761308991248e-07
0
LINE
5
121
100
AcDbEntity
8
0
100
AcDbLine
10
1.2907097733871353
20
179.40469404467814
30
3.7117761308991248e-07
11
3.8513699451669581
21
181.96535421645797
31
3.7117761308991248e-07
0
ARC
5
122
100
AcDbEntity
8
0
100
AcDbCircle
10
4.912030116946795
20
180.90469404467811
30
0
40
1.5000000000000213
210
0
220
-0
230
1
100
AcDbArc
50
90
51
134.99999999999767
0
LINE
5
123
100
AcDbEntity
8
0
100
AcDbLine
10
4.912030116946795
20
182.40469404467814
30
0
11
6.6693894298274614
21
182.40469404467817
31
3.7117761308991248e-07
0
ARC
5
124
100
AcDbEntity
8
0
100
AcDbCircle
10
6.6693894298274614
20
180.90469404467814
30
0
40
1.4999999999999969
210
0
220
-0
230
1
100
AcDbArc
50
44.999999999999041
51
90
0
LINE
5
125
100
AcDbEntity
8
0
100
AcDbLine
10
7.7300496016072984
20
181.96535421645794
30
0
11
10.290709773387121
21
179.40469404467817
31
3.7117761308991248e-07
0
LINE
5
126
100
AcDbEntity
8
0
100
AcDbLine
10
10.290709773387121
20
179.40469404467817
30
3.7117761308991248e-07
11
19.527806780187014
21
179.40469404467808
31
-3.5527136788005009e-14
0
ARC
5
127
100
AcDbEntity
8
0
100
AcDbCircle
10
20.290709773387086
20
178.11319142254894
30
-1.7763568394002505e-14
40
1.4999999999999958
210
0
220
0
230
1
100
AcDbArc
50
105.82662013187172
51
120.57075415342966
0
ARC
5
128
100
AcDbEntity
8
0
100
AcDbCircle
10
18.790709773387086
20
183.40469404467751
30
-1.5527040427584443e-05
40
3.9999999999999956
210
2.5307564528857892e-08
220
-8.9276696042769243e-08
230
0.99999999999999578
100
AcDbArc
50
285.82662013187246
51
318.59037789072732
0
ARC
5
129
100
AcDbEntity
8
0
100
AcDbCircle
10
20.290709773386855
20
182.08181838914487
30
1.9527239445842966e-05
40
2.000000000000052
210
-1.3919159824736956e-07
220
1.2275545118406305e-07
230
0.9999999999999829
100
AcDbArc
50
-41.409622109273634
51
7.9175710768455929e-06
0
LINE
5
130
100
AcDbEntity
8
0
100
AcDbLine
10
22.290709773387043
20
182.08181838914584
30
-1.7763568394002505e-14
11
22.290709773387007
21
184.72756970021044
31
0
0
ARC
5
131
100
AcDbEntity
8
0
100
AcDbCircle
10
20.29070977338705
20
184.72756970021044
30
-5.3290705182007514e-14
40
1.9999999999999574
210
-2.6645352591004325e-14
220
0
230
1
100
AcDbArc
50
0
51
41.409622109272462
0
ARC
5
132
100
AcDbEntity
8
0
100
AcDbCircle
10
18.790709773387025
20
183.40469404467768
30
1.2935896244098846e-05
40
4.000000000000032
210
6.9595805785025375e-08
220
6.1377731466779342e-08
230
0.99999999999999578
100
AcDbArc
50
41.409622109272284
51
44.839002747297961
0
ARC
5
133
100
AcDbEntity
8
0
100
AcDbCircle
10
22.690709773386413
20
187.28283793061121
30
5.6148553755255135e-06
40
1.5000000000000315
210
2.4745173021755754e-07
220
0
230
0.99999999999996947
100
AcDbArc
50
180
51
224.83900274729817
0
LWPOLYLINE
5
134
100
AcDbEntity
8
0
100
AcDbPolyline
90
4
70
1
43
0.0
10
13.848341225886251
20
213.16914372543329
42
0.028562094556089712
10
13.794425853992935
20
211.58330140072934
42
-0.99999995347114023
10
-2.2012966678956967
20
211.21335410347129
42
-0.028562095966834487
10
-2.0853204268606169
20
214.62462520445729
42
-1.0000000105367122
0
CIRCLE
5
135
100
AcDbEntity
8
0
100
AcDbCircle
10
17.433704468369378
20
193.23812835806589
30
1.7763568394002505e-14
40
1.0999999999999943
210
-1.4649729483403756e-15
220
0
230
1
0
CIRCLE
5
136
100
AcDbEntity
8
0
100
AcDbCircle
10
27.690709773387496
20
211.90469404467871
30
1.7763568394002505e-14
40
1.8000000000000003
210
2.5399088462727844e-31
220
0
230
1
0
CIRCLE
5
137
100
AcDbEntity
8
0
100
AcDbCircle
10
1.4907097733871666
20
197.75513480110436
30
0
40
4.0000000000000036
210
5.6775658322026137e-32
220
0
230
1
0
CIRCLE
5
138
100
AcDbEntity
8
0
100
AcDbCircle
10
18.7907097733871
20
183.40469404467811
30
3.7117759532634409e-07
40
1.7000000002615323
210
-3.8926146068281037e-23
220
-8.7373028482815796e-23
230
1
0
CIRCLE
5
139
100
AcDbEntity
8
0
100
AcDbCircle
10
-7.2092902266129499
20
183.40469404467819
30
3.7117763085348088e-07
40
1.7000000002615501
210
-3.8926146265496263e-23
220
-8.7373028482815796e-23
230
1
0
CIRCLE
5
140
100
AcDbEntity
8
0
100
AcDbCircle
10
5.8522849215947659
20
193.23812835806595
30
7.8906610045616759e-15
40
1.1000000000000121
210
1.6870175532654057e-15
220
0
230
-1
0
ENDSEC
0
SECTION
2
OBJECTS
0
DICTIONARY
5
C
100
AcDbDictionary
3
ACAD_GROUP
350
D
3
ACAD_MLINESTYLE
350
17
0
DICTIONARY
5
D
100
AcDbDictionary
0
DICTIONARY
5
1A
330
C
100
AcDbDictionary
0
DICTIONARY
5
17
100
AcDbDictionary
0
ENDSEC
0
EOF
