0
SECTION
2
HEADER
9
$INSUNITS
70
4
9
$ACADVER
1
AC1014
9
$HANDSEED
5
FFFF
0
ENDSEC
0
SECTION
2
TABLES
0
TABLE
2
VPORT
5
8
100
AcDbSymbolTable
0
ENDTAB
0
TABLE
2
LTYPE
5
5
100
AcDbSymbolTable
0
LTYPE
5
14
100
AcDbSymbolTableRecord
100
AcDbLinetypeTableRecord
2
BYBLOCK
70
0
0
LTYPE
5
15
100
AcDbSymbolTableRecord
100
AcDbLinetypeTableRecord
2
BYLAYER
70
0
0
ENDTAB
0
TABLE
2
LAYER
5
2
100
AcDbSymbolTable
70
2
0
LAYER
5
50
100
AcDbSymbolTableRecord
100
AcDbLayerTableRecord
2
0
70
0
6
CONTINUOUS
0
ENDTAB
0
TABLE
2
STYLE
5
3
100
AcDbSymbolTable
70
1
0
STYLE
5
11
100
AcDbSymbolTableRecord
100
AcDbTextStyleTableRecord
2
STANDARD
70
0
0
ENDTAB
0
TABLE
2
VIEW
5
6
100
AcDbSymbolTable
70
0
0
ENDTAB
0
TABLE
2
UCS
5
7
100
AcDbSymbolTable
70
0
0
ENDTAB
0
TABLE
2
APPID
5
9
100
AcDbSymbolTable
70
2
0
APPID
5
12
100
AcDbSymbolTableRecord
100
AcDbRegAppTableRecord
2
ACAD
70
0
0
ENDTAB
0
TABLE
2
DIMSTYLE
5
A
100
AcDbSymbolTable
70
1
0
ENDTAB
0
TABLE
2
BLOCK_RECORD
5
1
100
AcDbSymbolTable
70
1
0
BLOCK_RECORD
5
1F
100
AcDbSymbolTableRecord
100
AcDbBlockTableRecord
2
*MODEL_SPACE
0
BLOCK_RECORD
5
1B
100
AcDbSymbolTableRecord
100
AcDbBlockTableRecord
2
*PAPER_SPACE
0
ENDTAB
0
ENDSEC
0
SECTION
2
BLOCKS
0
BLOCK
5
20
100
AcDbEntity
100
AcDbBlockBegin
2
*MODEL_SPACE
0
ENDBLK
5
21
100
AcDbEntity
100
AcDbBlockEnd
0
BLOCK
5
1C
100
AcDbEntity
100
AcDbBlockBegin
2
*PAPER_SPACE
0
ENDBLK
5
1D
100
AcDbEntity
100
AcDbBlockEnd
0
ENDSEC
0
SECTION
2
ENTITIES
0
LWPOLYLINE
5
100
100
AcDbEntity
8
OUTER_PROFILES
100
AcDbPolyline
90
11
70
1
43
0.0
10
4.1170000000000417
20
39.999999999999986
10
6.3193821138726154
20
39.999999999999979
10
35.255382113872606
20
39.999999999999957
10
41.574764227745291
20
39.999999999999972
42
-0.41421356237309293
10
44.074764227745291
20
37.499999999999993
10
44.074764227745305
20
2.4999999999999689
42
-0.41421356237309659
10
41.574764227745305
20
-4.4408920985006262e-14
10
0
20
0
42
-0.41421356237309659
10
-2.4999999999999956
20
2.5000000000000178
10
-2.4999999999999289
20
37.5
42
-0.41421356237309304
10
7.1456304238429172e-14
20
39.999999999999986
0
LWPOLYLINE
5
101
100
AcDbEntity
8
INTERIOR_PROFILES
100
AcDbPolyline
90
4
70
1
43
0.0
10
28.935297875528967
20
33.499999999999979
42
-0.99999999999999989
10
28.935297875528967
20
34.999999999999964
10
31.935297875528015
20
34.999999999999957
42
-0.99999999999999989
10
31.935297875529933
20
33.499999999999972
0
LWPOLYLINE
5
102
100
AcDbEntity
8
INTERIOR_PROFILES
100
AcDbPolyline
90
4
70
1
43
0.0
10
28.935297875528949
20
7.9999999999999849
10
31.935297875528956
20
7.9999999999999671
42
0.99999999999999989
10
31.935297875528956
20
9.4999999999999893
10
28.935297875528949
20
9.4999999999999716
42
0.99999999999999989
0
LWPOLYLINE
5
103
100
AcDbEntity
8
INTERIOR_PROFILES
100
AcDbPolyline
90
4
70
1
43
0.0
10
31.935297875528956
20
6.4999999999999813
10
28.935297875528946
20
6.4999999999999636
42
0.99999999999999989
10
28.935297875528946
20
4.9999999999999778
10
31.935297875528946
20
4.99999999999996
42
0.99999999999999989
0
LWPOLYLINE
5
104
100
AcDbEntity
8
INTERIOR_PROFILES
100
AcDbPolyline
90
4
70
1
43
0.0
10
12.639466352216322
20
31.999999999999964
42
-0.99999999999999989
10
12.639466352216322
20
30.499999999999979
10
9.6394663522153561
20
30.499999999999979
42
-0.99999999999999989
10
9.6394663522163153
20
31.999999999999964
0
LWPOLYLINE
5
105
100
AcDbEntity
8
INTERIOR_PROFILES
100
AcDbPolyline
90
4
70
1
43
0.0
10
28.935297875528963
20
30.499999999999972
42
-0.99999999999999989
10
28.935297875528963
20
31.999999999999957
10
31.935297875528011
20
31.999999999999954
42
-0.99999999999999989
10
31.93529787552993
20
30.499999999999968
0
LWPOLYLINE
5
106
100
AcDbEntity
8
INTERIOR_PROFILES
100
AcDbPolyline
90
4
70
1
43
0.0
10
12.639466352216306
20
9.5000000000000018
42
-0.99999999999999989
10
12.639466352216306
20
7.9999999999999805
10
9.6394663522163011
20
8.0000000000000036
42
-0.99999999999999989
10
9.6394663522162976
20
9.4999999999999893
0
LWPOLYLINE
5
107
100
AcDbEntity
8
INTERIOR_PROFILES
100
AcDbPolyline
90
34
70
1
43
0.0
10
15.888402628306398
20
28.999999999999957
10
14.285920945860543
20
28.99999999999995
42
0.37070696483144644
10
13.297268214645857
20
28.150219096860923
42
-0.26007095259379565
10
12.700122135607842
20
27.380262916233079
42
0.65773297503444084
10
12.686504334125722
20
24.625610719698969
42
-0.29821662669859922
10
13.285918943735652
20
23.708712619697565
10
13.285830668637617
20
23.570476051721279
42
-0.18220773841815335
10
13.03660649320118
20
22.910557315760983
42
0.37668591116053868
10
13.03520118433803
20
21.591043363153155
42
-0.18192850912958047
10
13.283020170598
20
20.931676347416605
10
13.28296159590306
20
20.788943152620163
42
-0.29757959524838107
10
12.684729853614137
20
19.873612118905932
42
0.54904413405761587
10
12.29863265687885
20
17.372004205994294
42
-0.21604176825130275
10
12.639466352216303
20
16.620007009990523
10
12.639466352216273
20
13.310003504995215
42
0.41421356237309814
10
17.639466352216303
20
8.3100035049951941
10
23.935297875528949
20
8.3100035049952066
42
0.41421356237309398
10
28.935297875528917
20
13.310003504995221
10
28.935297875528917
20
16.620007009990513
42
-0.21604176825130114
10
29.276131570866344
20
17.372004205994273
42
0.5490441340576141
10
28.890034374131076
20
19.873612118905918
42
-0.29757959524838445
10
28.291802631842135
20
20.788943152620156
10
28.291744057147199
20
20.931676347416595
42
-0.18192850912957173
10
28.539563043407163
20
21.59104336315313
42
0.37668591116055444
10
28.538157734544029
20
22.910557315760975
42
-0.18220773841814816
10
28.288933559107594
20
23.570476051721272
10
28.288845284009582
20
23.708712619697554
42
-0.29821662669859378
10
28.888259893619509
20
24.625610719698933
42
0.65773297503442785
10
28.874642092137421
20
27.380262916233082
42
-0.26007095259379964
10
28.277496013099363
20
28.150219096860901
42
0.37070696483144988
10
27.28884328188467
20
28.99999999999995
10
25.686361599438815
20
28.99999999999995
42
-0.28186105365720721
10
23.459552742363275
20
30.363636363636459
42
0.61237243569575639
10
18.115211485381945
20
30.363636363636473
42
-0.28186105365720787
0
LWPOLYLINE
5
108
100
AcDbEntity
8
INTERIOR_PROFILES
100
AcDbPolyline
90
4
70
1
43
0.0
10
12.639466352216303
20
3.4999999999999876
10
9.639466352216294
20
3.4999999999999742
42
0.99999999999999989
10
9.6394663522162958
20
1.9999999999999885
10
12.639466352216303
20
1.9999999999999662
42
0.99999999999999989
0
LWPOLYLINE
5
109
100
AcDbEntity
8
INTERIOR_PROFILES
100
AcDbPolyline
90
4
70
1
43
0.0
10
31.935297875528974
20
37.999999999999964
10
28.935297875528967
20
37.999999999999972
42
0.99999999999999989
10
28.935297875528967
20
36.499999999999986
10
31.935297875528974
20
36.499999999999979
42
0.99999999999999989
0
LWPOLYLINE
5
110
100
AcDbEntity
8
INTERIOR_PROFILES
100
AcDbPolyline
90
4
70
1
43
0.0
10
9.6394663522153596
20
33.499999999999986
42
-0.99999999999999989
10
9.6394663522163153
20
34.999999999999972
10
12.639466352216324
20
34.999999999999972
42
-0.99999999999999989
10
12.639466352216322
20
33.499999999999986
0
LWPOLYLINE
5
111
100
AcDbEntity
8
INTERIOR_PROFILES
100
AcDbPolyline
90
4
70
1
43
0.0
10
12.639466352216326
20
37.999999999999979
42
-0.99999999999999989
10
12.639466352216326
20
36.499999999999993
10
9.6394663522163206
20
36.499999999999993
42
-0.99999999999999989
10
9.6394663522163189
20
37.999999999999979
0
LWPOLYLINE
5
112
100
AcDbEntity
8
INTERIOR_PROFILES
100
AcDbPolyline
90
4
70
1
43
0.0
10
31.935297875528953
20
3.4999999999999565
10
28.935297875528946
20
3.4999999999999565
42
0.99999999999999989
10
28.935297875528946
20
1.9999999999999707
10
31.935297875528953
20
1.9999999999999707
42
0.99999999999999989
0
LWPOLYLINE
5
113
100
AcDbEntity
8
INTERIOR_PROFILES
100
AcDbPolyline
90
4
70
1
43
0.0
10
12.639466352216305
20
6.4999999999999947
10
9.6394663522162958
20
6.4999999999999813
42
0.99999999999999989
10
9.6394663522162976
20
4.9999999999999956
10
12.639466352216305
20
4.9999999999999734
42
0.99999999999999989
0
CIRCLE
5
114
100
AcDbEntity
8
INTERIOR_PROFILES
100
AcDbCircle
10
-41.574764227744851
20
2.5000000000001688
30
0
40
1.3
210
0
220
0
230
-1
0
CIRCLE
5
115
100
AcDbEntity
8
INTERIOR_PROFILES
100
AcDbCircle
10
-7.1054273576010019e-14
20
37.499999999999986
30
0
40
1.2999999999999989
210
0
220
0
230
-1
0
CIRCLE
5
116
100
AcDbEntity
8
INTERIOR_PROFILES
100
AcDbCircle
10
-41.574764227744829
20
37.500000000000149
30
0
40
1.2999999999999989
210
0
220
0
230
-1
0
CIRCLE
5
117
100
AcDbEntity
8
INTERIOR_PROFILES
100
AcDbCircle
10
-4.4408920985006262e-15
20
2.5
30
0
40
1.3
210
0
220
0
230
-1
0
CIRCLE
5
118
100
AcDbEntity
8
INTERIOR_PROFILES
100
AcDbCircle
10
10.287382113872612
20
22.249999999999972
30
0
40
1.25
210
0
220
0
230
1
0
CIRCLE
5
119
100
AcDbEntity
8
INTERIOR_PROFILES
100
AcDbCircle
10
31.28738211387261
20
22.249999999999957
30
0
40
1.25
210
0
220
0
230
1
0
LINE
5
120
100
AcDbEntity
8
BEND
100
AcDbLine
10
36.356573170808907
20
-4.4408920985006262e-14
30
5.1156700283246301e-13
11
36.356573170808929
21
39.999999999999972
31
5.1750579578065073e-13
0
LINE
5
121
100
AcDbEntity
8
BEND
100
AcDbLine
10
5.2181910569363366
20
39.999999999999979
30
1.2048565772607479e-13
11
5.2181910569363055
21
-4.4408920985006262e-15
31
1.5317193951705057e-14
0
LINE
5
122
100
AcDbEntity
8
BEND_EXTENT
100
AcDbLine
10
35.255382113872578
20
-3.9968028886505635e-14
30
4.8024706005768807e-13
11
35.255382113872614
21
39.999999999999957
31
4.846879521561893e-13
0
LINE
5
123
100
AcDbEntity
8
BEND_EXTENT
100
AcDbLine
10
6.3193821138726154
20
39.999999999999979
30
3.3001124752275693e-14
11
6.3193821138725887
21
-2.2204460492503131e-14
31
3.3001124752275251e-14
0
LINE
5
124
100
AcDbEntity
8
BEND_EXTENT
100
AcDbLine
10
37.457764227745287
20
39.999999999999972
30
5.5493196519086444e-13
11
37.457764227745244
21
-4.4408920985006262e-14
31
5.1940482840285872e-13
0
LINE
5
125
100
AcDbEntity
8
BEND_EXTENT
100
AcDbLine
10
4.1170000000000018
20
-4.4408920985006262e-15
30
1.1606924801108317e-14
11
4.1170000000000417
21
39.999999999999986
31
4.7134061589113957e-14
0
ENDSEC
0
SECTION
2
OBJECTS
0
DICTIONARY
5
C
100
AcDbDictionary
3
ACAD_GROUP
350
D
3
ACAD_MLINESTYLE
350
17
0
DICTIONARY
5
D
100
AcDbDictionary
0
DICTIONARY
5
1A
330
C
100
AcDbDictionary
0
DICTIONARY
5
17
100
AcDbDictionary
0
ENDSEC
0
EOF
